<?xml version="1.0" encoding="UTF-8"?>
<svg id="Layer_2" data-name="Layer 2" xmlns="http://www.w3.org/2000/svg" viewBox="0 0 359.18 57.81">
  <defs>
    <style>
      .cls-1 {
        fill: #fff;
      }
    </style>
  </defs>
  <g id="_1" data-name="1">
    <g id="Layer_1-2" data-name="Layer 1-2">
      <g>
        <g>
          <path class="cls-1" d="M0,17.96h7.3v17.82l15.01-17.82h8.7l-15.99,18.94v.56l15.99,19.92h-8.7l-15.01-17.96v17.96H0V17.96Z"/>
          <path class="cls-1" d="M38.86,17.96h25.68v6.45h-18.24v9.68h15.85v5.89h-15.85v10.8h18.1v6.45h-25.4V17.96h-.14Z"/>
          <path class="cls-1" d="M83.06,43.77l-13.33-25.82h8.14l9.12,17.82,8.98-17.82h8l-13.61,25.82v13.47h-7.3v-13.47Z"/>
          <path class="cls-1" d="M115.75,44.48c.28,4.21,3.65,7.44,9.68,7.44s7.72-2.39,7.72-5.61-6.59-5.19-9.68-5.61c-7.02-1.12-14.17-2.95-14.17-11.79s5.89-11.65,15.15-11.65,15.71,4.77,16.28,13.19h-7.72c-.28-4.07-2.95-7.16-8.56-7.16s-7.58,2.24-7.58,5.47,3.79,4.63,9.26,5.61c6.87,1.12,14.73,2.53,14.73,11.22s-5.61,12.07-15.57,12.07-16.56-4.77-17.4-13.47h7.72l.14.28Z"/>
          <path class="cls-1" d="M157.42,24.41h-11.08v-6.59h29.32v6.59h-11.08v32.83h-7.3V24.41h.14Z"/>
          <path class="cls-1" d="M181.55,37.6c0-12.21,8.7-20.34,19.22-20.34s19.08,8.14,19.08,20.34-8.56,20.2-19.08,20.2-19.22-8.14-19.22-20.2ZM212.56,37.74c0-7.72-5.05-13.61-11.79-13.61s-11.79,5.89-11.79,13.61,5.19,13.61,11.93,13.61,11.65-5.89,11.65-13.61h0Z"/>
          <path class="cls-1" d="M228.84,17.96h5.33l19.22,24.97v-24.97h7.3v39.29h-5.33l-19.36-24.83v24.83h-7.3V17.96h.14Z"/>
          <path class="cls-1" d="M272.05,17.96h5.33l19.22,24.97v-24.97h7.3v39.29h-5.33l-19.36-24.83v24.83h-7.3V17.96h.14Z"/>
          <path class="cls-1" d="M315.26,17.96h25.68v6.45h-18.24v9.68h15.85v5.89h-15.85v10.8h18.1v6.45h-25.4V17.96h-.14Z"/>
        </g>
        <path class="cls-1" d="M359.18,7.58c0,4.35-3.37,7.72-7.72,7.72s-7.86-3.37-7.86-7.72,3.51-7.58,7.86-7.58,7.72,3.37,7.72,7.58ZM345.71,7.58c0,3.37,2.53,6.03,5.89,6.03s5.75-2.67,5.75-6.03-2.39-6.03-5.75-6.03-5.89,2.67-5.89,6.03h0ZM350.34,11.5h-1.68V3.93c.7,0,1.68-.28,2.95-.28s2.1.28,2.67.56c.42.28.7.98.7,1.68s-.7,1.54-1.54,1.68h0c.7.42,1.12.98,1.4,1.96.28,1.12.42,1.54.56,1.96h-1.96c-.28-.28-.42-.98-.56-1.82-.14-.84-.56-1.26-1.54-1.26h-.84v3.09h-.14ZM350.34,7.3h.84c.98,0,1.68-.28,1.68-1.12s-.56-1.12-1.54-1.12-.84,0-.98,0v2.24h0Z"/>
      </g>
    </g>
  </g>
</svg>