<?xml version="1.0" encoding="UTF-8"?>
<svg id="Layer_2" xmlns="http://www.w3.org/2000/svg" version="1.1" viewBox="0 0 55.1 56.3">
  <!-- Generator: Adobe Illustrator 29.8.3, SVG Export Plug-In . SVG Version: 2.1.1 Build 3)  -->
  <defs>
    <style>
      .st0 {
        fill: #fff;
      }
    </style>
  </defs>
  <g id="Layer_1-2">
    <g>
      <g>
        <path class="st0" d="M34.9,56.3h-4.1c-.8,0-1.3-.3-1.5-1-1.7-5.8-4-11.5-5-17.6-.9-5.9-.3-11.6,1.5-17.3,1.1-3.5,2.2-7,3.3-10.6.3-1.1.9-1.7,2.1-1.6.7,0,1.3,0,2,0s1.4,0,2.1,0c1.4,0,1.6.2,1.2,1.6-1.1,3.6-2.1,7.2-3.3,10.7-2.8,7.8-2.8,15.6,0,23.4,1.2,3.4,2.2,7,3.3,10.5.5,1.7.4,1.9-1.5,1.9h0Z"/>
        <path class="st0" d="M24.2,56.2c-1.5,0-3,0-4.5,0-.9,0-1.4-.3-1.8-1.2-1.6-4.1-3.5-8.1-5-12.2-1.2-3.5-1.9-7-1.7-10.8-.2-5.7,1.6-10.9,3.8-16,.9-2.2,1.9-4.3,2.7-6.5.4-1,1-1.5,2.1-1.4,1.5,0,2.9,0,4.4,0,1.5,0,1.6.3,1,1.7-1.5,3.5-2.9,7.1-4.4,10.6-3.5,7.7-3.6,15.3-.2,23,1.6,3.6,3.1,7.3,4.6,11,.6,1.6.5,1.8-1.1,1.8h0Z"/>
        <path class="st0" d="M7.2,32.2v22c0,1.9,0,2-2,2-1.2,0-2.4,0-3.6,0C.4,56.3,0,55.8,0,54.7c0-3,0-6,0-9C0,34,0,22.2,0,10.4c0-2.1,0-2.2,2.2-2.2h2.5c1.6,0,2.4.8,2.4,2.3,0,4.9,0,9.7,0,14.6v7.1h0,0Z"/>
      </g>
      <path class="st0" d="M55.1,5.4c0,3.1-2.4,5.5-5.5,5.5s-5.6-2.4-5.6-5.5S46.4,0,49.5,0s5.5,2.4,5.5,5.4ZM45.4,5.4c0,2.4,1.8,4.3,4.2,4.3s4.1-1.9,4.1-4.3-1.7-4.3-4.2-4.3-4.2,1.9-4.2,4.3h0ZM48.7,8.2h-1.2V2.8c.5,0,1.2-.2,2.1-.2s1.5.2,1.9.4c.3.2.5.7.5,1.2s-.5,1.1-1.1,1.2h0c.5.3.8.7,1,1.4.2.8.3,1.1.4,1.4h-1.3c-.2-.2-.3-.7-.4-1.3,0-.6-.4-.9-1.1-.9h-.6v2.2h0ZM48.7,5.2h.6c.7,0,1.2-.2,1.2-.8s-.4-.8-1.2-.8-.6,0-.7,0v1.6h0Z"/>
    </g>
  </g>
</svg>